<?xml version="1.0" encoding="UTF-8"?>
<svg xmlns="http://www.w3.org/2000/svg" xmlns:xlink="http://www.w3.org/1999/xlink" width="24px" height="24px" viewBox="0 0 24 24" version="1.1">
<g id="surface1">
<path style=" stroke:none;fill-rule:nonzero;fill:rgb(100%,100%,100%);fill-opacity:1;" d="M 5.761719 1.441406 C 3.378906 1.441406 1.441406 3.378906 1.441406 5.761719 L 1.441406 12.183594 L 7.882812 15.402344 C 8.121094 15.511719 8.226562 15.800781 8.117188 16.042969 C 8.035156 16.21875 7.863281 16.320312 7.679688 16.320312 C 7.613281 16.320312 7.546875 16.304688 7.476562 16.277344 L 1.441406 13.257812 L 1.441406 18.238281 C 1.441406 20.621094 3.378906 22.558594 5.761719 22.558594 L 18.238281 22.558594 C 20.621094 22.558594 22.558594 20.621094 22.558594 18.238281 L 22.558594 5.761719 C 22.558594 3.378906 20.621094 1.441406 18.238281 1.441406 Z M 5.761719 2.398438 L 18.238281 2.398438 C 20.09375 2.398438 21.601562 3.90625 21.601562 5.761719 L 21.601562 18.238281 C 21.601562 20.09375 20.09375 21.601562 18.238281 21.601562 L 5.761719 21.601562 C 3.90625 21.601562 2.398438 20.09375 2.398438 18.238281 L 2.398438 14.8125 L 4.328125 15.777344 C 4.324219 15.878906 4.320312 15.980469 4.320312 16.078125 C 4.320312 18.066406 5.933594 19.679688 7.921875 19.679688 C 9.90625 19.679688 11.519531 18.066406 11.519531 16.078125 C 11.519531 15.671875 11.453125 15.273438 11.320312 14.894531 L 13.597656 13.175781 C 14.082031 13.351562 14.59375 13.441406 15.121094 13.441406 C 17.636719 13.441406 19.679688 11.394531 19.679688 8.878906 C 19.679688 6.363281 17.636719 4.320312 15.121094 4.320312 C 12.605469 4.320312 10.558594 6.363281 10.558594 8.878906 C 10.558594 9.417969 10.652344 9.941406 10.832031 10.441406 L 9.175781 12.707031 C 8.777344 12.558594 8.351562 12.480469 7.921875 12.480469 C 7.085938 12.480469 6.316406 12.761719 5.707031 13.242188 L 2.398438 11.59375 L 2.398438 5.761719 C 2.398438 3.90625 3.90625 2.398438 5.761719 2.398438 Z M 15.121094 5.28125 C 17.105469 5.28125 18.71875 6.894531 18.71875 8.878906 C 18.71875 10.867188 17.105469 12.480469 15.121094 12.480469 C 14.625 12.480469 14.15625 12.382812 13.71875 12.191406 C 13.558594 12.121094 13.378906 12.144531 13.238281 12.246094 L 10.445312 14.351562 C 10.261719 14.492188 10.207031 14.738281 10.300781 14.941406 C 10.472656 15.296875 10.558594 15.679688 10.558594 16.078125 C 10.558594 17.535156 9.375 18.71875 7.921875 18.71875 C 6.527344 18.71875 5.375 17.628906 5.289062 16.257812 L 7.050781 17.136719 L 7.066406 17.140625 L 7.074219 17.144531 C 7.265625 17.238281 7.46875 17.28125 7.679688 17.28125 C 8.242188 17.28125 8.753906 16.953125 8.984375 16.445312 C 9.316406 15.730469 9.007812 14.878906 8.296875 14.539062 L 6.703125 13.742188 C 7.066406 13.550781 7.476562 13.441406 7.921875 13.441406 C 8.34375 13.441406 8.746094 13.535156 9.121094 13.726562 C 9.332031 13.839844 9.589844 13.777344 9.730469 13.585938 L 11.21875 11.550781 L 11.765625 10.789062 C 11.867188 10.65625 11.890625 10.472656 11.816406 10.316406 C 11.621094 9.863281 11.519531 9.378906 11.519531 8.878906 C 11.519531 6.894531 13.132812 5.28125 15.121094 5.28125 Z M 15.121094 6.238281 C 13.667969 6.238281 12.480469 7.425781 12.480469 8.878906 C 12.480469 10.332031 13.667969 11.519531 15.121094 11.519531 C 16.574219 11.519531 17.761719 10.332031 17.761719 8.878906 C 17.761719 7.425781 16.574219 6.238281 15.121094 6.238281 Z M 15.121094 7.199219 C 16.054688 7.199219 16.800781 7.945312 16.800781 8.878906 C 16.800781 9.8125 16.054688 10.558594 15.121094 10.558594 C 14.1875 10.558594 13.441406 9.8125 13.441406 8.878906 C 13.441406 7.945312 14.1875 7.199219 15.121094 7.199219 Z M 15.121094 7.199219 "/>
</g>
</svg>
